<?xml version="1.0" encoding="UTF-8"?>
<svg id="Calque_1" data-name="Calque 1" xmlns="http://www.w3.org/2000/svg" viewBox="0 0 522.56 459.83">
  <defs>
    <style>
      .cls-1 {
        fill: #fef5ad;
        stroke-width: 0px;
      }
    </style>
  </defs>
  <path class="cls-1" d="M522.56,81.04c-.09.79-.24,1.57-.27,2.36-.79,18.12-1.21,36.26-2.44,54.35-1.51,22.22-4.58,44.24-11.67,65.49-5.37,16.07-13,30.88-25.24,42.87-14.07,13.79-31.08,22-50.34,25.72-2.9.56-5.82.99-9.42,1.59,1.21.71,1.88,1.14,2.58,1.52,18.78,10.18,32.86,24.62,40.39,44.89,4.83,13.02,6.67,26.44,2.28,39.83-2.69,8.2-6.43,16.15-10.49,23.8-11.01,20.77-25.33,39.02-43.33,54.25-11.17,9.45-23.34,17.14-37.79,20.68-10.85,2.66-21.09,1.81-31.09-3.73-24.16-13.4-44.02-31.48-60-53.93-9.06-12.73-16.76-26.25-23.27-40.45-.27-.59-.56-1.18-.86-1.75-.05-.1-.23-.13-.44-.25-2.51,5.04-4.91,10.13-7.55,15.09-10.75,20.23-23.59,38.95-40.42,54.68-10.57,9.88-22.11,18.44-34.65,25.78-11.84,6.93-23.9,7.48-36.62,3.55-12.99-4.02-24.14-11.2-34.34-19.96-23.08-19.84-40.11-44.08-51.81-72.1-7.42-17.79-5.17-35.18,2.8-52.16,7.1-15.11,18.28-26.51,32.49-35.06,2.47-1.49,4.99-2.91,7.96-4.63-3.26-.57-6.08-.99-8.87-1.55-33.13-6.7-57.16-24.92-70.95-56.09-6.4-14.47-10.14-29.69-12.69-45.24C2.93,148.54,1.49,126.34.83,104.07c-.2-6.6-.34-13.2-.54-19.8-.03-.93-.19-1.86-.29-2.79,0-12.34,0-24.68,0-37.02.44-2.63.79-5.28,1.33-7.89,2.42-11.72,7.68-21.68,17.97-28.41C28.14,2.37,38.12.57,48.45.07c12.47-.61,24.12,2.66,35.36,7.61,19.23,8.47,36.61,19.99,53.16,32.82,22.59,17.52,43.39,36.97,62.34,58.39,24.29,27.45,45.26,57.14,61.11,90.31.23.48.55.91.92,1.52,2.2-4.37,4.21-8.53,6.36-12.63,15.98-30.43,36.17-57.86,59.19-83.29,14.93-16.49,31.05-31.74,48.18-45.9,18.49-15.29,38-29.06,59.73-39.47,16.21-7.76,32.98-11.6,51-8.12,18.08,3.49,30.1,13.48,34.63,31.67.94,3.77,1.43,7.65,2.12,11.48v36.58ZM501.66,81.75c0-11.26.08-21.2-.04-31.14-.04-3.68-.31-7.4-.9-11.03-1.15-7.08-4.64-12.71-11.55-15.44-7.97-3.15-16.32-4.1-24.76-2.5-11.15,2.11-21.35,6.82-31.2,12.26-21,11.59-39.83,26.22-57.7,42.09-20.99,18.64-40.16,39.01-57.28,61.28-19.44,25.28-36.22,52.1-47.03,82.32-1.13,3.17-3.3,5.44-6.55,6.51-5.68,1.87-11.01-1.02-13.42-6.81-3.9-9.35-7.63-18.79-12.14-27.84-11.47-23.01-26.1-43.98-42.41-63.8-24.42-29.65-51.86-56.12-83.19-78.46-12.48-8.9-25.47-16.89-39.71-22.76-11.01-4.54-22.16-7.07-34.08-4.16-9.36,2.29-15.75,7.53-17.69,17.23-.69,3.46-1.07,7.05-1.04,10.57.15,16.4.35,32.8.81,49.19.65,23.28,2.22,46.5,6.12,69.5,2.22,13.09,5.26,25.95,10.46,38.23,6.5,15.35,16.34,27.81,31.24,35.83,10.9,5.86,22.67,9.03,34.78,11.12,15.62,2.69,31.39,3.58,47.21,3.93,6.02.13,12.06,0,18.05.45,5.81.44,9.87,6.44,8.68,12.11-1.13,5.36-5.04,8.36-10.97,8.62-6.23.27-12.47.45-18.67,1.03-13.88,1.3-27.29,4.49-39.73,10.97-17.45,9.09-30.05,22.33-34.68,42.01-1.85,7.85-2.58,15.84.63,23.52,10.57,25.35,25.63,47.56,46.74,65.35,8.6,7.24,18.03,13.2,29.1,15.95,2.81.7,5.99,1.3,8.71.69,3.75-.85,7.36-2.63,10.78-4.48,11.89-6.44,22.32-14.86,31.96-24.26,22.98-22.39,39.13-49.02,49-79.52,1.62-5,5.47-7.97,10.2-7.91,4.69.06,8.4,2.97,10,7.89,11.53,35.4,31.17,65.37,59.87,89.23,7.99,6.64,16.31,12.85,26,16.86,2.88,1.19,6.06,2.47,9.06,2.39,3.67-.1,7.41-1.27,10.91-2.55,10.85-3.98,20.11-10.59,28.5-18.39,18.29-17,31.9-37.27,41.5-60.25,1.28-3.06,2.02-6.56,2.12-9.88.51-16.74-5.46-31.06-17.1-42.97-12.14-12.41-27.39-18.86-44.06-22.45-10.75-2.31-21.65-3.18-32.62-3.21-3.57-.01-6.77-.93-9.08-3.83-2.72-3.43-3.27-7.25-1.36-11.21,2.04-4.25,5.71-5.85,10.28-6,13.7-.43,27.41-.74,41.1-1.48,12.68-.69,25.21-2.62,37.45-6.12,13.95-3.99,26.62-10.22,36.5-21.25,8.53-9.53,13.89-20.78,17.71-32.84,6.55-20.72,9.25-42.14,10.81-63.69,1.26-17.36,1.87-34.77,2.69-50.86Z"/>
</svg>